<?xml version="1.0" encoding="utf-8"?>
<!-- Svg Vector Icons : http://www.onlinewebfonts.com/icon -->
<!DOCTYPE svg PUBLIC "-//W3C//DTD SVG 1.1//EN" "http://www.w3.org/Graphics/SVG/1.1/DTD/svg11.dtd">
<svg version="1.1" xmlns="http://www.w3.org/2000/svg" xmlns:xlink="http://www.w3.org/1999/xlink" x="0px" y="0px" viewBox="0 0 1000 1000" enable-background="new 0 0 1000 1000" xml:space="preserve">
<metadata> Svg Vector Icons : http://www.onlinewebfonts.com/icon </metadata>
<g><g><g><g><path d="M238.2,803.5c105,31.5,214.6-19.4,261.4-114.8l49.6,13.9l1,33.3L821,817c0,0,38.6-20.1,47.4-59c9.1-38.8-9-69.1-9-69.1l-270.7-81.2l-15.4,26L520.4,619c13.1-105.3-50.5-208.1-155.5-239.3C247.8,344.5,124.6,411.2,89.6,528C54.6,645,121.1,768.2,238.2,803.5z M138.3,542.6c27-90,121.8-141.3,212.2-114.3c90.1,27,141.2,121.9,114.3,212c-27,90-121.9,141.5-212.2,114.5C162.6,727.9,111.3,632.8,138.3,542.6z"/><polygon points="10,823.9 10,865.4 57.4,865.4 255.6,998.4 744.4,998.4 942.6,865.4 990,865.4 990,823.9 "/><path d="M408.3,373.7c0,0,80.3-9.2,96.4-78.1c16.2-68.8-70-139.5-64.2-192.9c6.8-64.3,45.9-101.1,45.9-101.1S348.5,61.4,408.3,167C468,272.7,504.7,309.5,408.3,373.7z"/><path d="M571.9,373.7c0,0,80.4-9.2,96.5-78.1c16.1-68.9-70-139.6-64.3-192.9C611,38.4,650,1.6,650,1.6S512.2,61.4,572,167C631.6,272.7,668.4,309.5,571.9,373.7z"/></g></g><g></g><g></g><g></g><g></g><g></g><g></g><g></g><g></g><g></g><g></g><g></g><g></g><g></g><g></g><g></g></g><g></g><g></g><g></g><g></g><g></g><g></g><g></g><g></g><g></g><g></g><g></g><g></g><g></g><g></g><g></g></g>
</svg>